<?xml version="1.0" encoding="utf-8"?>
<svg viewBox="-7.966 180.147 507.966 115.196" xmlns="http://www.w3.org/2000/svg" xmlns:xlink="http://www.w3.org/1999/xlink" xmlns:bx="https://boxy-svg.com">
  <defs>
    <linearGradient id="gradient-2-0" gradientUnits="userSpaceOnUse" x1="244.485" y1="194.392" x2="244.485" y2="215.848" gradientTransform="matrix(1, 0, 0, 1, 6.433619, 31.552768)" xlink:href="#gradient-2"/>
    <linearGradient id="gradient-2">
      <stop offset="0.143" style="stop-color: rgb(166, 24, 237);"/>
    </linearGradient>
  </defs>
  <path style="fill-rule: nonzero; fill: none; paint-order: stroke; stroke-linejoin: round; stroke-width: 6px; stroke: url('#gradient-2-0'); transform-origin: 250.918px 236.673px;" d="M 47.181 242.491 C 47.181 242.491 74.27192362007091 235.61479102571337 86.396 236.363 C 97.14983777320748 237.026647908327 106.72170016132296 244.80594985536973 116.421 244.941 C 125.47281791686459 245.06703480036413 132.4738236351093 238.99709730573312 142.769 238.201 C 156.88012576667742 237.10982595833678 181.91878941922633 246.61800219789112 193.627 243.103 C 201.03929502811252 240.87770407322387 201.62159784845915 232.2456050670525 209.558 230.236 C 224.97500530015625 226.33220437845944 261.3288275329429 245.44845769149066 285.538 244.329 C 308.16449059081776 243.28272718923785 328.3288217755852 225.78142131053744 350.489 225.946 C 373.8211354187375 226.1192825535378 402.90075084661487 246.90844142851213 422.181 247.392 C 435.06910016985125 247.71524018521467 454.656 239.427 454.656 239.427" bx:d="M 47.181 242.491 R 86.396 236.363 R 116.421 244.941 R 142.769 238.201 R 193.627 243.103 R 209.558 230.236 R 285.538 244.329 R 350.489 225.946 R 422.181 247.392 R 454.656 239.427 1@d4650a8d"/>
</svg>