<svg xmlns="http://www.w3.org/2000/svg" xmlns:xlink="http://www.w3.org/1999/xlink" width="500" zoomAndPan="magnify" viewBox="0 0 375 374.999991" height="500" preserveAspectRatio="xMidYMid meet" version="1.0"><defs><g/><clipPath id="fe2033fdbb"><path d="M 5.339844 174.023438 L 374.8125 174.023438 L 374.8125 207.53125 L 5.339844 207.53125 Z M 5.339844 174.023438 " clip-rule="nonzero"/></clipPath></defs><path stroke-linecap="butt" transform="matrix(0.00197718, -0.81499, 0.81499, 0.00197718, 194.354478, 295.198692)" fill="none" stroke-linejoin="miter" d="M 0.000565696 0.499686 L 264.305872 0.500738 " stroke="#000000" stroke-width="1" stroke-opacity="1" stroke-miterlimit="4"/><g fill="#ffffff" fill-opacity="1"><g transform="translate(51.83008, 252.815246)"><g><path d="M 83.046875 -116.164062 C 83.046875 -80.222656 31.703125 -75.730469 31.703125 -64.179688 C 31.703125 -56.863281 43.511719 -59.8125 57.761719 -38.507812 C 78.039062 -8.085938 81.636719 0 87.539062 0 L 107.179688 0 L 107.179688 -1.285156 C 92.546875 -1.285156 80.480469 -24.003906 68.414062 -41.972656 C 56.09375 -60.457031 32.988281 -56.863281 32.988281 -64.179688 C 32.988281 -72.523438 95.113281 -76.757812 95.113281 -116.417969 C 95.113281 -121.167969 93.570312 -126.175781 91.261719 -128.355469 L 78.554688 -128.355469 C 81.378906 -126.304688 83.046875 -120.910156 83.046875 -116.164062 Z M 3.851562 0 L 38.378906 0 L 38.378906 -1.285156 C 27.339844 -1.285156 26.570312 -10.398438 26.570312 -35.683594 L 26.570312 -92.671875 C 26.570312 -117.960938 27.339844 -127.074219 38.378906 -127.074219 L 38.378906 -128.355469 L 3.851562 -128.355469 L 3.851562 -127.074219 C 14.890625 -127.074219 15.660156 -117.960938 15.660156 -92.671875 L 15.660156 -35.683594 C 15.660156 -10.398438 14.890625 -1.285156 3.851562 -1.285156 Z M 3.851562 0 "/></g></g></g><g fill="#ffffff" fill-opacity="1"><g transform="translate(197.889262, 252.815246)"><g><path d="M 3.851562 -128.355469 L 3.851562 -127.074219 C 14.890625 -127.074219 15.660156 -117.960938 15.660156 -92.671875 L 15.660156 -35.683594 C 15.660156 -10.398438 14.890625 -1.285156 3.851562 -1.285156 L 3.851562 0 L 38.507812 0 L 38.507812 -1.285156 C 27.46875 -1.285156 16.941406 -10.523438 16.941406 -47.878906 L 16.941406 -64.179688 L 17.070312 -119.242188 C 36.582031 -77.398438 48.132812 -52.496094 68.285156 -9.371094 L 69.441406 -9.371094 C 85.230469 -51.726562 98.191406 -87.027344 112.054688 -124.121094 L 112.054688 -35.683594 C 112.054688 -10.398438 111.285156 -1.285156 100.246094 -1.285156 L 100.246094 0 L 134.902344 0 L 134.902344 -1.285156 C 123.863281 -1.285156 123.09375 -10.398438 123.09375 -35.683594 L 123.09375 -92.671875 C 123.09375 -117.960938 123.863281 -127.074219 134.902344 -127.074219 L 134.902344 -128.355469 L 112.3125 -128.355469 L 73.804688 -24.902344 L 24.515625 -128.355469 Z M 3.851562 -128.355469 "/></g></g></g><g clip-path="url(#fe2033fdbb)"><path fill="#000000" d="M 5.339844 174.023438 L 374.835938 174.023438 L 374.835938 207.53125 L 5.339844 207.53125 Z M 5.339844 174.023438 " fill-opacity="1" fill-rule="nonzero"/></g><g fill="#ffffff" fill-opacity="1"><g transform="translate(19.226597, 198.400999)"><g><path d="M 6.703125 -6.65625 L 3.8125 -3.71875 L 3.8125 0 L 2.3125 0 L 2.3125 -14.171875 L 3.8125 -14.171875 L 3.8125 -5.609375 L 12.125 -14.171875 L 13.84375 -14.171875 L 7.71875 -7.75 L 14.28125 0 L 12.5 0 Z M 6.703125 -6.65625 "/></g></g></g><g fill="#ffffff" fill-opacity="1"><g transform="translate(40.071441, 198.400999)"><g><path d="M 11.203125 -3.78125 L 3.296875 -3.78125 L 1.59375 0 L 0.046875 0 L 6.515625 -14.171875 L 8 -14.171875 L 14.484375 0 L 12.90625 0 Z M 10.65625 -5 L 7.25 -12.609375 L 3.84375 -5 Z M 10.65625 -5 "/></g></g></g><g fill="#ffffff" fill-opacity="1"><g transform="translate(61.037696, 198.400999)"><g><path d="M 8.015625 0.125 C 6.179688 0.125 4.75 -0.398438 3.71875 -1.453125 C 2.695312 -2.503906 2.1875 -4.039062 2.1875 -6.0625 L 2.1875 -14.171875 L 3.6875 -14.171875 L 3.6875 -6.109375 C 3.6875 -4.460938 4.054688 -3.234375 4.796875 -2.421875 C 5.535156 -1.617188 6.609375 -1.21875 8.015625 -1.21875 C 9.429688 -1.21875 10.507812 -1.617188 11.25 -2.421875 C 12 -3.234375 12.375 -4.460938 12.375 -6.109375 L 12.375 -14.171875 L 13.828125 -14.171875 L 13.828125 -6.0625 C 13.828125 -4.039062 13.316406 -2.503906 12.296875 -1.453125 C 11.273438 -0.398438 9.847656 0.125 8.015625 0.125 Z M 8.015625 0.125 "/></g></g></g><g fill="#ffffff" fill-opacity="1"><g transform="translate(83.521479, 198.400999)"><g><path d="M 6.21875 0.125 C 5.164062 0.125 4.15625 -0.0390625 3.1875 -0.375 C 2.21875 -0.71875 1.472656 -1.164062 0.953125 -1.71875 L 1.53125 -2.875 C 2.050781 -2.363281 2.734375 -1.945312 3.578125 -1.625 C 4.429688 -1.3125 5.3125 -1.15625 6.21875 -1.15625 C 7.488281 -1.15625 8.441406 -1.382812 9.078125 -1.84375 C 9.710938 -2.3125 10.03125 -2.921875 10.03125 -3.671875 C 10.03125 -4.234375 9.851562 -4.679688 9.5 -5.015625 C 9.15625 -5.359375 8.734375 -5.617188 8.234375 -5.796875 C 7.742188 -5.984375 7.050781 -6.1875 6.15625 -6.40625 C 5.09375 -6.664062 4.242188 -6.921875 3.609375 -7.171875 C 2.972656 -7.421875 2.425781 -7.800781 1.96875 -8.3125 C 1.519531 -8.832031 1.296875 -9.53125 1.296875 -10.40625 C 1.296875 -11.125 1.484375 -11.773438 1.859375 -12.359375 C 2.242188 -12.953125 2.828125 -13.421875 3.609375 -13.765625 C 4.390625 -14.117188 5.359375 -14.296875 6.515625 -14.296875 C 7.328125 -14.296875 8.117188 -14.179688 8.890625 -13.953125 C 9.671875 -13.734375 10.347656 -13.429688 10.921875 -13.046875 L 10.40625 -11.84375 C 9.8125 -12.238281 9.175781 -12.53125 8.5 -12.71875 C 7.832031 -12.914062 7.171875 -13.015625 6.515625 -13.015625 C 5.273438 -13.015625 4.34375 -12.773438 3.71875 -12.296875 C 3.09375 -11.816406 2.78125 -11.203125 2.78125 -10.453125 C 2.78125 -9.878906 2.953125 -9.421875 3.296875 -9.078125 C 3.640625 -8.734375 4.066406 -8.46875 4.578125 -8.28125 C 5.097656 -8.101562 5.800781 -7.90625 6.6875 -7.6875 C 7.71875 -7.4375 8.554688 -7.1875 9.203125 -6.9375 C 9.847656 -6.6875 10.390625 -6.304688 10.828125 -5.796875 C 11.273438 -5.296875 11.5 -4.613281 11.5 -3.75 C 11.5 -3.03125 11.304688 -2.375 10.921875 -1.78125 C 10.535156 -1.195312 9.941406 -0.734375 9.140625 -0.390625 C 8.347656 -0.046875 7.375 0.125 6.21875 0.125 Z M 6.21875 0.125 "/></g></g></g><g fill="#ffffff" fill-opacity="1"><g transform="translate(102.423893, 198.400999)"><g><path d="M 5.0625 -12.875 L 0.078125 -12.875 L 0.078125 -14.171875 L 11.546875 -14.171875 L 11.546875 -12.875 L 6.5625 -12.875 L 6.5625 0 L 5.0625 0 Z M 5.0625 -12.875 "/></g></g></g><g fill="#ffffff" fill-opacity="1"><g transform="translate(120.496727, 198.400999)"><g><path d="M 11.203125 -3.78125 L 3.296875 -3.78125 L 1.59375 0 L 0.046875 0 L 6.515625 -14.171875 L 8 -14.171875 L 14.484375 0 L 12.90625 0 Z M 10.65625 -5 L 7.25 -12.609375 L 3.84375 -5 Z M 10.65625 -5 "/></g></g></g><g fill="#ffffff" fill-opacity="1"><g transform="translate(141.462982, 198.400999)"><g><path d="M 11.234375 -7.3125 C 12.171875 -7.101562 12.890625 -6.695312 13.390625 -6.09375 C 13.898438 -5.5 14.15625 -4.726562 14.15625 -3.78125 C 14.15625 -2.570312 13.707031 -1.640625 12.8125 -0.984375 C 11.914062 -0.328125 10.585938 0 8.828125 0 L 2.3125 0 L 2.3125 -14.171875 L 8.421875 -14.171875 C 10.003906 -14.171875 11.226562 -13.851562 12.09375 -13.21875 C 12.96875 -12.582031 13.40625 -11.6875 13.40625 -10.53125 C 13.40625 -9.75 13.210938 -9.082031 12.828125 -8.53125 C 12.441406 -7.988281 11.910156 -7.582031 11.234375 -7.3125 Z M 3.8125 -12.9375 L 3.8125 -7.796875 L 8.328125 -7.796875 C 9.472656 -7.796875 10.351562 -8.015625 10.96875 -8.453125 C 11.59375 -8.890625 11.90625 -9.53125 11.90625 -10.375 C 11.90625 -11.207031 11.59375 -11.84375 10.96875 -12.28125 C 10.351562 -12.71875 9.472656 -12.9375 8.328125 -12.9375 Z M 8.8125 -1.234375 C 10.082031 -1.234375 11.039062 -1.445312 11.6875 -1.875 C 12.332031 -2.3125 12.65625 -2.988281 12.65625 -3.90625 C 12.65625 -5.675781 11.375 -6.5625 8.8125 -6.5625 L 3.8125 -6.5625 L 3.8125 -1.234375 Z M 8.8125 -1.234375 "/></g></g></g><g fill="#ffffff" fill-opacity="1"><g transform="translate(163.17789, 198.400999)"><g><path d="M 14.15625 -14.171875 L 14.15625 0 L 12.671875 0 L 12.671875 -6.546875 L 3.8125 -6.546875 L 3.8125 0 L 2.3125 0 L 2.3125 -14.171875 L 3.8125 -14.171875 L 3.8125 -7.859375 L 12.671875 -7.859375 L 12.671875 -14.171875 Z M 14.15625 -14.171875 "/></g></g></g><g fill="#ffffff" fill-opacity="1"><g transform="translate(186.093733, 198.400999)"><g/></g></g><g fill="#ffffff" fill-opacity="1"><g transform="translate(197.853633, 198.400999)"><g/></g></g><g fill="#ffffff" fill-opacity="1"><g transform="translate(209.626271, 198.400999)"><g><path d="M 17.03125 -14.171875 L 17.03125 0 L 15.59375 0 L 15.59375 -11.34375 L 10.03125 -1.796875 L 9.3125 -1.796875 L 3.75 -11.28125 L 3.75 0 L 2.3125 0 L 2.3125 -14.171875 L 3.546875 -14.171875 L 9.703125 -3.671875 L 15.796875 -14.171875 Z M 17.03125 -14.171875 "/></g></g></g><g fill="#ffffff" fill-opacity="1"><g transform="translate(235.408138, 198.400999)"><g><path d="M 11.203125 -3.78125 L 3.296875 -3.78125 L 1.59375 0 L 0.046875 0 L 6.515625 -14.171875 L 8 -14.171875 L 14.484375 0 L 12.90625 0 Z M 10.65625 -5 L 7.25 -12.609375 L 3.84375 -5 Z M 10.65625 -5 "/></g></g></g><g fill="#ffffff" fill-opacity="1"><g transform="translate(256.374393, 198.400999)"><g><path d="M 14.15625 -14.171875 L 14.15625 0 L 12.671875 0 L 12.671875 -6.546875 L 3.8125 -6.546875 L 3.8125 0 L 2.3125 0 L 2.3125 -14.171875 L 3.8125 -14.171875 L 3.8125 -7.859375 L 12.671875 -7.859375 L 12.671875 -14.171875 Z M 14.15625 -14.171875 "/></g></g></g><g fill="#ffffff" fill-opacity="1"><g transform="translate(279.283077, 198.400999)"><g><path d="M 11.203125 -3.78125 L 3.296875 -3.78125 L 1.59375 0 L 0.046875 0 L 6.515625 -14.171875 L 8 -14.171875 L 14.484375 0 L 12.90625 0 Z M 10.65625 -5 L 7.25 -12.609375 L 3.84375 -5 Z M 10.65625 -5 "/></g></g></g><g fill="#ffffff" fill-opacity="1"><g transform="translate(300.249332, 198.400999)"><g><path d="M 14.15625 -14.171875 L 14.15625 0 L 12.921875 0 L 3.8125 -11.5 L 3.8125 0 L 2.3125 0 L 2.3125 -14.171875 L 3.546875 -14.171875 L 12.671875 -2.671875 L 12.671875 -14.171875 Z M 14.15625 -14.171875 "/></g></g></g><g fill="#ffffff" fill-opacity="1"><g transform="translate(323.158016, 198.400999)"><g><path d="M 5.0625 -12.875 L 0.078125 -12.875 L 0.078125 -14.171875 L 11.546875 -14.171875 L 11.546875 -12.875 L 6.5625 -12.875 L 6.5625 0 L 5.0625 0 Z M 5.0625 -12.875 "/></g></g></g><g fill="#ffffff" fill-opacity="1"><g transform="translate(341.23085, 198.400999)"><g><path d="M 11.203125 -3.78125 L 3.296875 -3.78125 L 1.59375 0 L 0.046875 0 L 6.515625 -14.171875 L 8 -14.171875 L 14.484375 0 L 12.90625 0 Z M 10.65625 -5 L 7.25 -12.609375 L 3.84375 -5 Z M 10.65625 -5 "/></g></g></g></svg>